<svg width="35" height="33" viewBox="0 0 35 33" fill="none" xmlns="http://www.w3.org/2000/svg">
<path fill-rule="evenodd" clip-rule="evenodd" d="M14.2385 6.24159C14.2385 9.43825 11.6368 12.0399 8.44014 12.0399C5.24114 12.0399 2.64181 9.43825 2.64181 6.24159C2.64181 3.04492 5.24114 0.440918 8.44014 0.440918C11.6368 0.440918 14.2385 3.04492 14.2385 6.24159ZM33.2677 18.871C33.8114 19.3983 34.2011 20.0003 34.4577 20.642C35.2347 22.5833 34.8311 24.9167 34.0004 26.8393C33.0157 29.1283 31.1304 30.8573 28.7551 31.6133C27.7004 31.9517 26.5944 32.0963 25.4907 32.0963H5.93508C3.98908 32.0963 2.26708 31.6437 0.85541 30.7943C-0.0289236 30.2623 -0.185257 29.0373 0.47041 28.2393C1.56708 26.9093 2.64974 25.5747 3.74174 24.2283C5.82308 21.6523 7.22541 20.9057 8.78408 21.5613C9.41641 21.832 10.0511 22.2403 10.7044 22.6697C12.4451 23.8223 14.8647 25.4043 18.0521 23.687C20.2308 22.4957 21.4954 20.4571 22.5962 18.6828L22.6184 18.647C22.6925 18.5282 22.7659 18.4095 22.8392 18.2912C23.2135 17.6864 23.5821 17.0907 23.9997 16.5423C24.5177 15.8633 26.4404 13.74 28.9254 15.252C30.5097 16.204 31.8421 17.492 33.2677 18.871Z" fill="#5570F1"/>
</svg>
